# xmcd CD database file
#
# Track frame offsets:
#	150
#	25612
#	61002
#	116197
#	142515
#	173932
#
# Disc length: 2915 seconds
#
# Revision: 0
# Processed by: cddbd v1.4PL0 Copyright (c) Steve Scherf et al.
# Submitted via: CDex 1.50beta10
#
DISCID=420b6106
DTITLE=Toshiyuki Honda - Dream
DYEAR=1984
DGENRE=Jazz
TTITLE0=Dream Comes True
TTITLE1=Sophisticated Lady
TTITLE2=Co-Motion
TTITLE3=I Hear A Rhapsody
TTITLE4=Alice In Wonderland
TTITLE5=Ode To Siddhartha
EXTD=YEAR: 1984
EXTT0=
EXTT1=
EXTT2=
EXTT3=
EXTT4=
EXTT5=
PLAYORDER=
